<svg display="none" xmlns="http://www.w3.org/2000/svg">
   <symbol id="back" viewBox="0 0 477.862 477.862">
      <g>
         <path d="M187.722,102.856V17.062C187.719,7.636,180.076-0.003,170.65,0c-4.834,0.001-9.44,2.053-12.676,5.644L4.375,176.311
            c-5.617,6.256-5.842,15.67-0.529,22.187l153.6,187.733c5.968,7.295,16.72,8.371,24.016,2.403c3.952-3.233,6.249-8.066,6.26-13.172
            v-85.043c134.827,4.386,218.965,62.02,256.888,175.787c2.326,6.96,8.841,11.653,16.179,11.656c0.92,0.003,1.84-0.072,2.748-0.222
            c8.256-1.347,14.319-8.479,14.319-16.845C477.855,259.818,356.87,112.174,187.722,102.856z"/>
      </g>
   </symbol>
   <symbol id='close' viewBox="0 0 47.971 47.971">
      <g>
         <path d="M28.228,23.986L47.092,5.122c1.172-1.171,1.172-3.071,0-4.242c-1.172-1.172-3.07-1.172-4.242,0L23.986,19.744L5.121,0.88
            c-1.172-1.172-3.07-1.172-4.242,0c-1.172,1.171-1.172,3.071,0,4.242l18.865,18.864L0.879,42.85c-1.172,1.171-1.172,3.071,0,4.242
            C1.465,47.677,2.233,47.97,3,47.97s1.535-0.293,2.121-0.879l18.865-18.864L42.85,47.091c0.586,0.586,1.354,0.879,2.121,0.879
            s1.535-0.293,2.121-0.879c1.172-1.171,1.172-3.071,0-4.242L28.228,23.986z"/>
         </g>
   </symbol>
   <symbol id="done" viewBox="0 0 512 512">
      <path d="m452 512h-392c-33.085938 0-60-26.914062-60-60v-392c0-33.085938 26.914062-60 60-60h392c33.085938 0 60 26.914062 60 60v392c0 33.085938-26.914062 60-60 60zm-392-472c-11.027344 0-20 8.972656-20 20v392c0 11.027344 8.972656 20 20 20h392c11.027344 0 20-8.972656 20-20v-392c0-11.027344-8.972656-20-20-20zm370.898438 111.34375-29.800782-26.6875-184.964844 206.566406-107.351562-102.046875-27.558594 28.988281 137.21875 130.445313zm0 0"/>
   </symbol>
   <symbol id ="edit" viewBox="0 0 512 512">
      <g>
      <path d="m384.721 0-323.626 323.627-61.095 188.373 188.374-61.094 323.626-323.627zm84.853 127.279-42.427 42.427-84.853-84.853 42.426-42.427zm-388.611 232.331 71.427 71.428-32.036 10.39-49.782-49.782zm14.501-27.925 225.617-225.618 31.82 31.82-225.618 225.617zm53.032 53.032 225.618-225.619 31.82 31.82-225.618 225.619zm-88.313 38.965 28.136 28.136-41.642 13.505z"/>
      </g>
   </symbol>
   <symbol id="phone" viewBox="0 0 32.667 32.667">
      <g>
         <path d="M16.333,0C7.327,0,0,7.327,0,16.334c0,9.006,7.326,16.333,16.333,16.333c0.557,0,1.007-0.451,1.007-1.006
            c0-0.556-0.45-1.007-1.007-1.007c-7.896,0-14.318-6.424-14.318-14.319c0-7.896,6.422-14.32,14.318-14.32
            c7.896,0,14.317,6.424,14.317,14.32c0,3.299-1.756,6.571-4.269,7.955c-0.913,0.502-1.903,0.751-2.959,0.761
            c0.634-0.378,1.183-0.887,1.591-1.531c0.08-0.121,0.186-0.226,0.238-0.359c0.328-0.789,0.357-1.684,0.555-2.516
            c0.243-1.066-4.658-3.143-5.084-1.815c-0.154,0.493-0.39,2.048-0.699,2.458c-0.275,0.365-0.953,0.193-1.377-0.168
            c-1.117-0.952-2.364-2.352-3.458-3.457l0.002-0.001c-0.028-0.029-0.062-0.062-0.092-0.091c-0.031-0.03-0.062-0.062-0.093-0.092l0,0
            c-1.106-1.093-2.506-2.338-3.457-3.458c-0.36-0.424-0.534-1.1-0.168-1.376c0.41-0.31,1.966-0.543,2.458-0.698
            c1.326-0.425-0.75-5.329-1.816-5.084c-0.832,0.195-1.727,0.225-2.516,0.552c-0.134,0.056-0.238,0.16-0.359,0.24
            c-2.799,1.775-3.16,6.083-0.428,9.292c1.041,1.228,2.127,2.416,3.245,3.576l-0.006,0.004c0.031,0.031,0.063,0.06,0.095,0.09
            c0.03,0.031,0.059,0.062,0.088,0.095l0.006-0.006c1.16,1.118,2.535,2.764,4.769,4.255c4.703,3.141,8.312,2.264,10.438,1.098
            c3.67-2.021,5.312-6.338,5.312-9.719C32.667,7.327,25.339,0,16.333,0z"/>
      </g>
   </symbol>
   <symbol id="process" viewBox="0 0 408 408">
      <g>
         <path d="M357,0H51C22.95,0,0,22.95,0,51v306c0,28.05,22.95,51,51,51h306c28.05,0,51-22.95,51-51V51C408,22.95,385.05,0,357,0z
         M357,357H51V51h306V357z"/>
	   </g>
   </symbol>
   <symbol id="remove" viewBox="0 0 408.483 408.483">
      <g>
         <path d="M87.748,388.784c0.461,11.01,9.521,19.699,20.539,19.699h191.911c11.018,0,20.078-8.689,20.539-19.699l13.705-289.316
            H74.043L87.748,388.784z M247.655,171.329c0-4.61,3.738-8.349,8.35-8.349h13.355c4.609,0,8.35,3.738,8.35,8.349v165.293
            c0,4.611-3.738,8.349-8.35,8.349h-13.355c-4.61,0-8.35-3.736-8.35-8.349V171.329z M189.216,171.329
            c0-4.61,3.738-8.349,8.349-8.349h13.355c4.609,0,8.349,3.738,8.349,8.349v165.293c0,4.611-3.737,8.349-8.349,8.349h-13.355
            c-4.61,0-8.349-3.736-8.349-8.349V171.329L189.216,171.329z M130.775,171.329c0-4.61,3.738-8.349,8.349-8.349h13.356
            c4.61,0,8.349,3.738,8.349,8.349v165.293c0,4.611-3.738,8.349-8.349,8.349h-13.356c-4.61,0-8.349-3.736-8.349-8.349V171.329z"/>
         <path d="M343.567,21.043h-88.535V4.305c0-2.377-1.927-4.305-4.305-4.305h-92.971c-2.377,0-4.304,1.928-4.304,4.305v16.737H64.916
            c-7.125,0-12.9,5.776-12.9,12.901V74.47h304.451V33.944C356.467,26.819,350.692,21.043,343.567,21.043z"/>
	   </g>
   </symbol>
   <symbol id="save" viewBox="0 0 469.336 469.336">
      	<g>
            <path d="M266.668,149.336h42.667c5.896,0,10.667-4.771,10.667-10.667V32.002c0-5.896-4.771-10.667-10.667-10.667h-42.667
               c-5.896,0-10.667,4.771-10.667,10.667v106.667C256.001,144.565,260.772,149.336,266.668,149.336z"/>
            <path d="M466.21,88.461L380.876,3.127c-3.042-3.052-7.646-3.969-11.625-2.313c-3.979,1.646-6.583,5.542-6.583,9.854v138.667
               c0,23.531-19.146,42.667-42.667,42.667h-192c-23.521,0-42.667-19.135-42.667-42.667V10.669c0-5.896-4.771-10.667-10.667-10.667
               h-32c-23.521,0-42.667,19.135-42.667,42.667v384c0,23.531,19.146,42.667,42.667,42.667h384c23.521,0,42.667-19.135,42.667-42.667
               V96.002C469.335,93.169,468.21,90.461,466.21,88.461z M405.335,437.336c0,5.896-4.771,10.667-10.667,10.667h-320
               c-5.896,0-10.667-4.771-10.667-10.667v-192c0-5.896,4.771-10.667,10.667-10.667h320c5.896,0,10.667,4.771,10.667,10.667V437.336z
               "/>
		   </g>
   </symbol>
   <symbol id="star" viewBox="0 0 53.867 53.867">
      <polygon style="fill:#EFCE4A;" points="26.934,1.318 35.256,18.182 53.867,20.887 40.4,34.013 43.579,52.549 26.934,43.798 
	   10.288,52.549 13.467,34.013 0,20.887 18.611,18.182 "/>
   </symbol>
   <symbol id="addTodo" viewBox="0 0 489.8 489.8">
      <g>
         <g>
            <path d="M438.2,0H51.6C23.1,0,0,23.2,0,51.6v386.6c0,28.5,23.2,51.6,51.6,51.6h386.6c28.5,0,51.6-23.2,51.6-51.6V51.6
               C489.8,23.2,466.6,0,438.2,0z M465.3,438.2c0,14.9-12.2,27.1-27.1,27.1H51.6c-14.9,0-27.1-12.2-27.1-27.1V51.6
               c0-14.9,12.2-27.1,27.1-27.1h386.6c14.9,0,27.1,12.2,27.1,27.1V438.2z"/>
            <path d="M337.4,232.7h-80.3v-80.3c0-6.8-5.5-12.3-12.3-12.3s-12.3,5.5-12.3,12.3v80.3h-80.3c-6.8,0-12.3,5.5-12.3,12.2
               c0,6.8,5.5,12.3,12.3,12.3h80.3v80.3c0,6.8,5.5,12.3,12.3,12.3s12.3-5.5,12.3-12.3v-80.3h80.3c6.8,0,12.3-5.5,12.3-12.3
               C349.7,238.1,344.2,232.7,337.4,232.7z"/>
         </g>
      </g> 
   </symbol>
</svg>